<?xml version="1.0" encoding="utf-8"?>
<!-- Generator: Adobe Illustrator 26.3.1, SVG Export Plug-In . SVG Version: 6.00 Build 0)  -->
<svg version="1.1" id="圖層_1" xmlns="http://www.w3.org/2000/svg" xmlns:xlink="http://www.w3.org/1999/xlink" x="0px" y="0px"
	 viewBox="0 0 150 150" style="enable-background:new 0 0 150 150;" xml:space="preserve">
<style type="text/css">
	.st0{fill:#455A74;}
</style>
<g>
	<g>
		<path class="st0" d="M124.02,124.03H26.17V26.17h97.85V124.03z M32.17,118.03h85.85V32.17H32.17V118.03z"/>
	</g>
	<g>
		<path class="st0" d="M34.47,18.75H23.9c-2.84,0-5.15,2.3-5.15,5.15v10.58c0,2.84,2.3,5.15,5.15,5.15h10.58
			c2.84,0,5.15-2.3,5.15-5.15V23.9C39.62,21.05,37.32,18.75,34.47,18.75z"/>
	</g>
	<g>
		<path class="st0" d="M126.1,18.75h-10.58c-2.84,0-5.15,2.3-5.15,5.15v10.58c0,2.84,2.3,5.15,5.15,5.15h10.58
			c2.84,0,5.15-2.3,5.15-5.15V23.9C131.25,21.05,128.95,18.75,126.1,18.75z"/>
	</g>
	<g>
		<path class="st0" d="M34.47,110.38H23.9c-2.84,0-5.15,2.3-5.15,5.15v10.58c0,2.84,2.3,5.15,5.15,5.15h10.58
			c2.84,0,5.15-2.3,5.15-5.15v-10.58C39.62,112.68,37.32,110.38,34.47,110.38z"/>
	</g>
	<g>
		<path class="st0" d="M126.1,110.38h-10.58c-2.84,0-5.15,2.3-5.15,5.15v10.58c0,2.84,2.3,5.15,5.15,5.15h10.58
			c2.84,0,5.15-2.3,5.15-5.15v-10.58C131.25,112.68,128.95,110.38,126.1,110.38z"/>
	</g>
	<g>
		<path class="st0" d="M72.77,102.97c-3.83,0-7.44-1.49-10.15-4.21l-0.66-0.66c-5.6-5.6-5.6-14.71,0-20.3l10.3-10.3
			c1.58-1.58,2.45-3.68,2.45-5.91c0-2.23-0.87-4.33-2.45-5.91c-1.58-1.58-3.68-2.45-5.91-2.45s-4.33,0.87-5.91,2.45L46.42,69.69
			c-1.17,1.17-3.07,1.17-4.24,0s-1.17-3.07,0-4.24l14.01-14.01c2.71-2.71,6.32-4.21,10.15-4.21s7.44,1.49,10.15,4.21
			c5.6,5.6,5.6,14.71,0,20.3l-10.3,10.3c-3.26,3.26-3.26,8.56,0,11.82l0.66,0.66c1.58,1.58,3.68,2.45,5.91,2.45s4.33-0.87,5.91-2.45
			l25.08-25.08c1.17-1.17,3.07-1.17,4.24,0c1.17,1.17,1.17,3.07,0,4.24L82.92,98.76C80.21,101.47,76.6,102.97,72.77,102.97z"/>
	</g>
</g>
</svg>
