<?xml version="1.0" encoding="utf-8"?>
<!-- Generator: Adobe Illustrator 26.3.1, SVG Export Plug-In . SVG Version: 6.00 Build 0)  -->
<svg version="1.1" id="圖層_1" xmlns="http://www.w3.org/2000/svg" xmlns:xlink="http://www.w3.org/1999/xlink" x="0px" y="0px"
	 viewBox="0 0 150 150" style="enable-background:new 0 0 150 150;" xml:space="preserve">
<style type="text/css">
	.st0{fill:#455A74;}
</style>
<g>
	<path class="st0" d="M113.64,129.89h-20.4c-4.02,0-7.3-3.27-7.3-7.3v-31.4c0-0.72-0.58-1.3-1.3-1.3h-19.4c-0.72,0-1.3,0.58-1.3,1.3
		v31.4c0,4.02-3.27,7.3-7.3,7.3h-20.4c-4.02,0-7.3-3.27-7.3-7.3v-46.4c0-0.72-0.58-1.3-1.3-1.3c-3.01,0-5.67-1.8-6.78-4.6
		s-0.42-5.93,1.76-8l47.3-44.78c2.81-2.66,7.22-2.66,10.03,0l47.3,44.78c2.18,2.07,2.87,5.21,1.76,8s-3.77,4.6-6.78,4.6
		c-0.72,0-1.3,0.58-1.3,1.3v46.4C120.94,126.62,117.67,129.89,113.64,129.89z M65.24,83.89h19.4c4.02,0,7.3,3.27,7.3,7.3v31.4
		c0,0.72,0.58,1.3,1.3,1.3h20.4c0.72,0,1.3-0.58,1.3-1.3v-46.4c0-4.02,3.27-7.3,7.3-7.3c0.77,0,1.08-0.51,1.21-0.82
		s0.24-0.9-0.31-1.42l-47.3-44.78c-0.5-0.47-1.28-0.47-1.78,0h0l-47.3,44.78c-0.56,0.53-0.43,1.12-0.31,1.42s0.44,0.82,1.21,0.82
		c4.02,0,7.3,3.27,7.3,7.3v46.4c0,0.72,0.58,1.3,1.3,1.3h20.4c0.72,0,1.3-0.58,1.3-1.3v-31.4C57.94,87.16,61.22,83.89,65.24,83.89z"
		/>
</g>
</svg>
