<?xml version="1.0" encoding="utf-8"?>
<!-- Generator: Adobe Illustrator 26.3.1, SVG Export Plug-In . SVG Version: 6.00 Build 0)  -->
<svg version="1.1" id="圖層_1" xmlns="http://www.w3.org/2000/svg" xmlns:xlink="http://www.w3.org/1999/xlink" x="0px" y="0px"
	 viewBox="0 0 150 150" style="enable-background:new 0 0 150 150;" xml:space="preserve">
<style type="text/css">
	.st0{fill:none;stroke:#C8C9CA;stroke-width:1.6257;stroke-miterlimit:10;}
	.st1{fill:#455A74;}
</style>
<g>
	<path class="st1" d="M99.95,74.84c-0.02,0.27-0.05,0.54-0.07,0.84c-0.02,0.2-0.03,0.41-0.05,0.63c-0.02,0.21-0.08,0.43-0.11,0.65
		c-0.09,0.44-0.16,0.91-0.26,1.39c-0.14,0.47-0.28,0.97-0.43,1.48c-0.06,0.26-0.18,0.51-0.28,0.77c-0.1,0.26-0.21,0.52-0.31,0.79
		c-0.9,2.1-2.3,4.35-4.33,6.36c-2.01,2.03-4.71,3.71-7.86,4.73c-0.78,0.3-1.61,0.43-2.44,0.63c-0.41,0.12-0.85,0.12-1.27,0.18
		c-0.43,0.04-0.86,0.12-1.3,0.14c-0.44,0.01-0.88,0.01-1.32,0.02c-0.22,0-0.44,0.02-0.67,0l-0.67-0.06
		c-0.44-0.05-0.9-0.06-1.34-0.13c-0.45-0.08-0.89-0.17-1.34-0.25c-0.46-0.06-0.89-0.21-1.34-0.34l-0.67-0.19
		c-0.22-0.06-0.45-0.13-0.66-0.22c-0.43-0.17-0.87-0.35-1.31-0.52c-0.22-0.08-0.43-0.19-0.64-0.3l-0.63-0.33l-0.64-0.33
		c-0.21-0.11-0.4-0.26-0.61-0.38c-0.4-0.26-0.81-0.51-1.21-0.79c-0.75-0.6-1.54-1.17-2.22-1.88c-0.74-0.64-1.33-1.43-1.99-2.16
		c-0.55-0.81-1.18-1.59-1.63-2.48L62,82.43c-0.06-0.11-0.13-0.21-0.18-0.33l-0.15-0.34l-0.61-1.37c-0.18-0.46-0.32-0.95-0.48-1.42
		l-0.24-0.72l-0.16-0.74c-0.1-0.49-0.23-0.98-0.31-1.48l-0.17-1.5c-0.08-0.5-0.06-1.01-0.07-1.51l-0.01-0.76
		c0-0.13-0.01-0.25,0-0.38l0.03-0.38L59.78,70c0.06-0.5,0.18-0.99,0.26-1.49l0.14-0.74l0.21-0.72c0.15-0.48,0.26-0.97,0.44-1.44
		c0.68-1.9,1.65-3.66,2.78-5.3c0.62-0.77,1.2-1.58,1.91-2.26l0.51-0.53l0.26-0.26l0.28-0.24c0.37-0.32,0.74-0.64,1.11-0.95
		c0.37-0.32,0.79-0.57,1.17-0.85l0.59-0.42c0.19-0.14,0.41-0.24,0.62-0.37c0.42-0.24,0.83-0.47,1.24-0.71
		c0.42-0.21,0.86-0.39,1.29-0.58l0.64-0.29c0.21-0.1,0.44-0.15,0.66-0.23c0.44-0.15,0.88-0.29,1.32-0.43
		c0.44-0.15,0.9-0.21,1.34-0.32c0.22-0.05,0.45-0.1,0.67-0.15c0.22-0.05,0.44-0.1,0.67-0.12c0.9-0.1,1.78-0.25,2.66-0.23
		c0.44,0,0.88-0.04,1.31-0.02c0.43,0.03,0.86,0.06,1.29,0.09c0.21,0.02,0.43,0.02,0.64,0.05c0.21,0.03,0.42,0.07,0.62,0.1
		c0.42,0.07,0.83,0.13,1.23,0.2c0.4,0.1,0.8,0.2,1.19,0.3c0.39,0.1,0.79,0.19,1.16,0.34c3.03,1,5.58,2.55,7.56,4.25
		c1.99,1.7,3.4,3.53,4.43,5.11c0.46,0.82,0.93,1.53,1.21,2.22c0.3,0.67,0.59,1.23,0.74,1.72c0.27,0.77,0.44,1.24,0.5,1.4l0,0
		c-0.71-2.79-1.97-5.44-3.69-7.78c-1.73-2.36-3.93-4.39-6.43-5.94c-2.51-1.56-5.32-2.64-8.26-3.15c-2.94-0.51-5.98-0.43-8.92,0.2
		c-2.94,0.64-5.76,1.86-8.27,3.57c-2.5,1.71-4.68,3.92-6.38,6.47c-1.7,2.55-2.91,5.43-3.52,8.46c-0.62,3.03-0.64,6.18-0.07,9.24
		c0.56,3.06,1.72,6.03,3.41,8.67c1.69,2.65,3.9,4.97,6.48,6.81c2.58,1.84,5.52,3.18,8.63,3.92c3.11,0.74,6.37,0.87,9.55,0.39
		c3.18-0.47,6.29-1.57,9.09-3.23c2.8-1.66,5.28-3.87,7.26-6.47c1.14-1.49,2.1-3.11,2.89-4.82c-0.03,0.09-0.06,0.17-0.09,0.26
		c-0.11,0.33-0.27,0.65-0.42,0.99c-0.15,0.33-0.31,0.67-0.47,1.01c-0.93,1.87-2.16,3.78-3.74,5.61c-0.32,0.38-0.67,0.74-1.02,1.11
		c-0.18,0.19-0.36,0.36-0.54,0.54c-0.24,0.24-0.49,0.48-0.75,0.72c-0.19,0.18-0.39,0.35-0.59,0.52c-0.2,0.17-0.4,0.34-0.61,0.51
		c-0.21,0.16-0.42,0.33-0.64,0.49c-0.06,0.05-0.25,0.18-0.31,0.23c-0.07,0.05-0.26,0.17-0.32,0.23C94.45,95.85,94.23,96,94,96.16
		c-0.23,0.15-0.46,0.29-0.7,0.44c-0.24,0.14-0.47,0.29-0.72,0.42c-0.24,0.13-0.48,0.26-0.72,0.39c-0.12,0.06-0.24,0.13-0.37,0.19
		c-0.08,0.04-0.3,0.14-0.37,0.18c-0.25,0.12-0.5,0.24-0.76,0.36c-0.26,0.12-0.52,0.22-0.78,0.33c-0.26,0.11-0.53,0.22-0.8,0.32
		c-0.68,0.26-1.37,0.5-2.08,0.71c-0.28,0.09-0.56,0.17-0.84,0.24c-0.28,0.07-0.57,0.13-0.86,0.19c-0.09,0.02-0.34,0.07-0.44,0.09
		c-0.29,0.06-0.59,0.12-0.88,0.18c-0.46,0.11-0.93,0.13-1.41,0.2c-0.47,0.05-0.95,0.12-1.43,0.14c-0.09,0-0.35,0.01-0.44,0.02
		c-0.15,0.01-0.3,0.01-0.45,0.01c-0.29,0.01-0.58,0.01-0.88,0.01c-0.3,0-0.6,0.02-0.89,0c-0.11,0-0.79-0.06-0.89-0.06
		c-0.6-0.05-1.2-0.08-1.8-0.17c-0.6-0.1-1.2-0.2-1.8-0.32c-0.33-0.05-0.66-0.13-0.99-0.22c-0.27-0.07-0.54-0.15-0.81-0.22
		c-0.12-0.03-0.81-0.23-0.93-0.27c-0.3-0.08-0.6-0.18-0.89-0.3c-0.09-0.04-0.35-0.13-0.44-0.17c-0.15-0.06-0.29-0.12-0.44-0.17
		c-0.29-0.12-0.58-0.23-0.88-0.35c-0.3-0.11-0.58-0.26-0.86-0.4c-0.11-0.04-0.75-0.38-0.85-0.43l-0.7-0.36
		c-0.04-0.02-0.17-0.09-0.21-0.12c-0.13-0.08-0.33-0.21-0.46-0.29c-0.27-0.17-0.54-0.33-0.81-0.5c-0.28-0.17-0.55-0.35-0.82-0.53
		c-0.08-0.06-0.31-0.22-0.38-0.28c-0.08-0.06-0.3-0.23-0.38-0.29c-0.26-0.19-0.51-0.38-0.77-0.58c-0.52-0.41-1.03-0.84-1.51-1.31
		c-0.47-0.41-0.92-0.86-1.34-1.32c-0.47-0.51-0.92-1.03-1.38-1.55c-0.36-0.49-0.74-0.98-1.1-1.47c-0.42-0.58-0.82-1.18-1.17-1.81
		c-0.07-0.1-0.45-0.76-0.51-0.87c-0.1-0.18-0.2-0.35-0.3-0.53c-0.06-0.11-0.24-0.51-0.29-0.61c-0.03-0.05-0.19-0.41-0.22-0.46
		l-0.2-0.46c-0.05-0.11-0.36-0.8-0.4-0.91c-0.08-0.2-0.28-0.74-0.34-0.94c-0.06-0.16-0.11-0.32-0.16-0.48
		c-0.03-0.1-0.12-0.38-0.16-0.48l-0.16-0.48c-0.02-0.06-0.14-0.43-0.15-0.48l-0.23-0.98c-0.04-0.21-0.17-0.77-0.22-0.98
		c-0.04-0.16-0.07-0.33-0.11-0.49c-0.02-0.11-0.07-0.4-0.09-0.5c-0.02-0.12-0.12-0.87-0.13-0.99l-0.12-1.01
		c-0.01-0.05-0.03-0.2-0.03-0.25c-0.01-0.05-0.02-0.2-0.02-0.25c-0.01-0.11-0.03-0.39-0.03-0.5c-0.02-0.34-0.02-0.68-0.03-1.02
		c0-0.12-0.01-0.89-0.02-1c0-0.17,0-0.34,0-0.51c0-0.06,0.03-0.44,0.03-0.5c0-0.06,0.03-0.45,0.03-0.51l0.04-0.5
		c0.01-0.12,0.07-0.89,0.09-1.01c0.08-0.67,0.22-1.33,0.34-2c0.02-0.11,0.17-0.86,0.19-0.97l0.26-0.97c0.06-0.2,0.22-0.75,0.27-0.95
		c0.09-0.33,0.2-0.65,0.31-0.97c0.11-0.31,0.22-0.63,0.35-0.93c0.12-0.31,0.25-0.61,0.38-0.92c0.13-0.3,0.27-0.6,0.41-0.9
		c0.07-0.15,0.14-0.3,0.22-0.44c0.05-0.09,0.18-0.35,0.23-0.44c0.05-0.09,0.18-0.34,0.23-0.44c0.08-0.14,0.16-0.29,0.24-0.43
		c0.16-0.28,0.33-0.57,0.49-0.85c0.17-0.28,0.34-0.55,0.52-0.83c0.06-0.09,0.21-0.32,0.27-0.41c0.08-0.12,0.26-0.37,0.33-0.49
		c0.2-0.26,0.39-0.51,0.59-0.77c0.62-0.8,1.25-1.59,1.96-2.3c0.07-0.07,0.57-0.6,0.64-0.67c0.04-0.04,0.31-0.31,0.35-0.35
		c0.04-0.04,0.32-0.28,0.36-0.32c0.08-0.07,0.28-0.25,0.35-0.32c0.08-0.07,0.28-0.24,0.36-0.31c0.25-0.22,0.5-0.44,0.76-0.65
		c0.24-0.2,0.49-0.39,0.74-0.57c0.28-0.2,0.56-0.4,0.84-0.6c0.1-0.07,0.7-0.5,0.8-0.56c0.27-0.19,0.55-0.34,0.83-0.51
		c0.2-0.12,0.4-0.23,0.61-0.35c0.36-0.21,0.72-0.41,1.08-0.6c0.17-0.09,0.35-0.17,0.53-0.26c0.27-0.13,0.55-0.25,0.83-0.37
		c0.13-0.06,0.26-0.12,0.39-0.17c0.05-0.02,0.38-0.17,0.43-0.19c0.06-0.02,0.39-0.17,0.45-0.19c0.29-0.13,0.6-0.21,0.89-0.32
		c0.6-0.2,1.2-0.39,1.79-0.58c0.6-0.19,1.21-0.29,1.81-0.43c0.3-0.06,0.61-0.13,0.91-0.19c0.3-0.06,0.6-0.12,0.9-0.15
		c0.3-0.03,0.6-0.07,0.89-0.11c0.3-0.04,0.59-0.06,0.89-0.09c0.58-0.06,1.16-0.09,1.73-0.09c0.29-0.01,0.58-0.01,0.87-0.01
		c0.29,0,0.57-0.01,0.86,0.01c0.57,0.04,1.14,0.07,1.7,0.12c0.28,0.02,0.56,0.04,0.84,0.08c0.28,0.04,0.55,0.09,0.83,0.13
		c0.55,0.09,1.09,0.18,1.63,0.28c0.53,0.13,1.05,0.26,1.57,0.4c0.52,0.14,1.03,0.27,1.52,0.46c2,0.67,3.84,1.52,5.5,2.49
		c1.65,0.96,3.13,2.04,4.43,3.16c1.32,1.14,2.45,2.33,3.42,3.49c0.93,1.13,1.71,2.24,2.36,3.27c0.61,1.07,1.19,2.02,1.57,2.91
		c0.4,0.88,0.76,1.63,0.96,2.27c0.23,0.64,0.4,1.14,0.51,1.47c0.1,0.29,0.15,0.44,0.16,0.46l0,0c-0.95-3.68-2.62-7.18-4.91-10.25
		c-2.28-3.07-5.16-5.71-8.45-7.72c-3.28-2.01-6.97-3.4-10.8-4.04c-3.83-0.65-7.79-0.52-11.61,0.33c-3.81,0.85-7.48,2.45-10.71,4.69
		c-3.24,2.24-6.04,5.11-8.22,8.42c-2.18,3.31-3.72,7.05-4.5,10.96c-0.78,3.91-0.78,7.99-0.04,11.93c0.74,3.94,2.26,7.76,4.45,11.16
		c2.19,3.4,5.05,6.38,8.37,8.72c3.32,2.35,7.11,4.06,11.1,4.99c3.99,0.94,8.17,1.08,12.24,0.44c4.07-0.63,8.04-2.05,11.6-4.19
		c3.56-2.13,6.71-4.97,9.23-8.3c1.29-1.7,2.41-3.54,3.34-5.47c-0.08,0.18-0.15,0.37-0.23,0.55c-0.16,0.41-0.37,0.8-0.57,1.21
		c-0.2,0.41-0.42,0.82-0.63,1.23c-1.25,2.29-2.87,4.62-4.89,6.81c-0.41,0.46-0.87,0.9-1.32,1.35c-0.22,0.23-0.46,0.44-0.7,0.66
		c-0.29,0.27-0.58,0.54-0.88,0.8c-0.25,0.21-0.5,0.42-0.76,0.62c-0.26,0.2-0.51,0.42-0.78,0.61c-0.27,0.2-0.54,0.39-0.81,0.59
		c-0.05,0.04-0.35,0.24-0.4,0.28c-0.05,0.04-0.36,0.23-0.41,0.27c-0.28,0.18-0.57,0.37-0.86,0.55c-0.29,0.18-0.59,0.35-0.88,0.52
		c-0.3,0.17-0.6,0.35-0.9,0.51c-0.3,0.16-0.61,0.31-0.92,0.47c-0.15,0.08-0.31,0.16-0.46,0.23c-0.06,0.04-0.41,0.18-0.47,0.22
		c-0.32,0.14-0.64,0.29-0.96,0.43c-0.32,0.14-0.65,0.26-0.99,0.39c-0.33,0.13-0.66,0.26-1,0.37c-0.8,0.28-1.6,0.55-2.43,0.77
		c-0.35,0.1-0.7,0.2-1.05,0.28c-0.36,0.08-0.72,0.15-1.08,0.22c-0.08,0.02-0.47,0.09-0.54,0.11c-0.3,0.06-0.61,0.11-0.92,0.17
		c-0.51,0.11-1.02,0.14-1.54,0.21c-0.52,0.06-1.04,0.12-1.56,0.15c-0.08,0-0.48,0.03-0.56,0.03c-0.19,0.01-0.37,0.02-0.56,0.02
		c-0.37,0.01-0.73,0.02-1.1,0.02c-0.37,0-0.75,0.01-1.12-0.01c-0.21-0.01-0.91-0.06-1.12-0.07c-0.75-0.06-1.51-0.11-2.26-0.21
		c-0.75-0.11-1.5-0.24-2.25-0.39c-0.42-0.07-0.83-0.17-1.24-0.27c-0.34-0.08-0.68-0.18-1.01-0.27c-0.24-0.07-0.95-0.27-1.19-0.34
		c-0.38-0.11-0.75-0.23-1.12-0.37c-0.08-0.03-0.48-0.17-0.56-0.2c-0.19-0.07-0.37-0.14-0.55-0.22c-0.37-0.15-0.73-0.29-1.1-0.44
		c-0.37-0.15-0.72-0.33-1.08-0.5c-0.21-0.09-0.86-0.43-1.07-0.53l-0.76-0.39c-0.04-0.02-0.23-0.12-0.26-0.14
		c-0.11-0.07-0.36-0.23-0.47-0.29c-0.34-0.21-0.68-0.41-1.03-0.62c-0.35-0.21-0.69-0.44-1.03-0.66c-0.07-0.05-0.43-0.29-0.49-0.34
		c-0.07-0.05-0.42-0.31-0.49-0.36c-0.32-0.24-0.65-0.48-0.97-0.72c-0.66-0.51-1.3-1.05-1.91-1.62c-0.6-0.52-1.16-1.07-1.71-1.64
		c-0.6-0.63-1.17-1.28-1.74-1.94c-0.47-0.6-0.95-1.21-1.41-1.83c-0.53-0.73-1.04-1.48-1.49-2.26c-0.13-0.2-0.52-0.88-0.65-1.08
		c-0.14-0.24-0.28-0.48-0.41-0.73c-0.11-0.21-0.33-0.67-0.44-0.88c-0.05-0.11-0.22-0.47-0.27-0.57l-0.26-0.57
		c-0.1-0.22-0.42-0.92-0.5-1.14c-0.07-0.17-0.39-1-0.44-1.17c-0.07-0.2-0.14-0.4-0.2-0.59c-0.03-0.09-0.17-0.51-0.2-0.6l-0.2-0.6
		c-0.04-0.11-0.15-0.49-0.19-0.6l-0.31-1.22c-0.04-0.17-0.24-1.05-0.28-1.23c-0.04-0.21-0.1-0.41-0.13-0.62
		c-0.02-0.09-0.1-0.54-0.11-0.63c-0.04-0.24-0.15-1-0.18-1.24l-0.15-1.26c-0.01-0.04-0.04-0.27-0.04-0.31
		c-0.01-0.04-0.02-0.27-0.03-0.31c-0.01-0.09-0.04-0.54-0.04-0.63c-0.03-0.43-0.04-0.85-0.05-1.28c-0.01-0.24-0.02-1.01-0.02-1.25
		c0-0.21,0-0.42,0.01-0.64c0-0.12,0.03-0.51,0.03-0.62c0-0.12,0.03-0.52,0.04-0.64l0.05-0.62c0.02-0.24,0.08-1.02,0.11-1.26
		c0.1-0.84,0.26-1.68,0.41-2.51c0.04-0.23,0.19-0.98,0.24-1.21l0.32-1.22c0.05-0.17,0.3-1.03,0.34-1.2c0.11-0.41,0.25-0.81,0.39-1.2
		c0.14-0.39,0.27-0.79,0.43-1.17c0.15-0.39,0.31-0.77,0.47-1.15c0.17-0.38,0.34-0.75,0.51-1.13c0.09-0.19,0.17-0.37,0.27-0.56
		c0.04-0.08,0.24-0.47,0.28-0.55c0.04-0.08,0.24-0.47,0.29-0.55c0.09-0.18,0.19-0.36,0.3-0.54c0.2-0.36,0.41-0.71,0.62-1.07
		c0.21-0.35,0.43-0.69,0.65-1.04c0.05-0.07,0.28-0.44,0.33-0.52c0.06-0.1,0.33-0.48,0.4-0.57c0.24-0.32,0.48-0.65,0.73-0.98
		c0.77-1.01,1.57-1.99,2.45-2.89c0.14-0.15,0.64-0.67,0.77-0.81c0.09-0.09,0.36-0.36,0.44-0.44c0.08-0.08,0.36-0.32,0.44-0.4
		c0.06-0.05,0.38-0.35,0.44-0.4c0.06-0.05,0.39-0.33,0.45-0.39c0.31-0.27,0.62-0.54,0.93-0.8c0.3-0.25,0.62-0.49,0.93-0.72
		c0.35-0.26,0.71-0.51,1.06-0.76c0.2-0.14,0.82-0.57,1.02-0.71c0.34-0.23,0.7-0.43,1.05-0.64c0.25-0.15,0.51-0.3,0.76-0.44
		c0.45-0.27,0.91-0.51,1.37-0.76c0.22-0.11,0.44-0.22,0.66-0.33c0.34-0.17,0.69-0.31,1.04-0.47c0.16-0.07,0.33-0.15,0.49-0.22
		c0.11-0.05,0.44-0.19,0.55-0.23c0.11-0.04,0.45-0.19,0.56-0.23c0.37-0.16,0.75-0.27,1.13-0.4c0.75-0.26,1.51-0.5,2.26-0.72
		c0.76-0.23,1.53-0.38,2.29-0.55c0.38-0.08,0.76-0.16,1.15-0.23c0.38-0.07,0.76-0.14,1.14-0.18c0.37-0.04,0.74-0.09,1.11-0.13
		c0.37-0.04,0.74-0.07,1.1-0.11c0.72-0.07,1.45-0.1,2.16-0.11c0.36-0.01,0.72-0.01,1.08-0.01c0.36,0,0.71-0.01,1.07,0.02
		c0.71,0.05,1.41,0.08,2.11,0.16c0.35,0.03,0.7,0.06,1.04,0.1c0.34,0.05,0.69,0.1,1.03,0.16c0.68,0.11,1.35,0.23,2.02,0.36
		c0.66,0.16,1.3,0.33,1.94,0.5c0.64,0.17,1.28,0.35,1.89,0.58c2.47,0.84,4.76,1.9,6.81,3.11c2.05,1.21,3.88,2.55,5.48,3.95
		c1.63,1.41,3.02,2.88,4.2,4.32c1.16,1.41,2.12,2.8,2.92,4.08c0.77,1.32,1.45,2.5,1.93,3.59c0.5,1.1,0.92,2.04,1.18,2.82
		c0.29,0.79,0.48,1.4,0.62,1.81c0.13,0.39,0.19,0.59,0.19,0.59c-1.19-4.55-3.28-8.88-6.11-12.66c-2.83-3.79-6.4-7.04-10.46-9.5
		c-4.06-2.47-8.61-4.16-13.33-4.93c-4.72-0.78-9.6-0.61-14.29,0.45c-4.69,1.06-9.19,3.04-13.15,5.81
		c-3.97,2.76-7.41,6.31-10.06,10.38c-2.66,4.07-4.54,8.67-5.48,13.47c-0.94,4.8-0.93,9.79,0,14.62c0.92,4.83,2.79,9.49,5.49,13.64
		c2.69,4.15,6.2,7.78,10.27,10.63c4.07,2.85,8.7,4.93,13.57,6.05c4.87,1.13,9.97,1.28,14.93,0.49c4.96-0.78,9.79-2.53,14.11-5.14
		c4.33-2.61,8.15-6.07,11.19-10.13c1.59-2.11,2.96-4.39,4.1-6.79c-0.21,0.5-0.44,1-0.67,1.51c-0.21,0.48-0.46,0.95-0.72,1.42
		c-0.26,0.48-0.52,0.96-0.8,1.45c-1.57,2.72-3.57,5.45-6.04,8.02c-0.51,0.55-1.06,1.05-1.62,1.58c-0.27,0.27-0.57,0.51-0.86,0.77
		c-0.33,0.29-0.67,0.59-1.01,0.88c-0.3,0.25-0.61,0.48-0.92,0.73c-0.31,0.24-0.62,0.49-0.95,0.72c-0.32,0.23-0.65,0.46-0.98,0.69
		c-0.04,0.03-0.45,0.3-0.49,0.34c-0.04,0.03-0.46,0.28-0.5,0.32c-0.34,0.22-0.69,0.43-1.03,0.64c-0.35,0.21-0.71,0.4-1.07,0.61
		c-0.36,0.2-0.72,0.41-1.09,0.59c-0.37,0.18-0.74,0.37-1.11,0.55c-0.19,0.09-0.37,0.18-0.56,0.27c-0.05,0.03-0.52,0.22-0.57,0.25
		c-0.38,0.17-0.77,0.33-1.16,0.5c-0.39,0.16-0.79,0.3-1.19,0.45c-0.4,0.14-0.8,0.31-1.21,0.43c-0.91,0.3-1.83,0.61-2.78,0.84
		c-0.42,0.11-0.84,0.22-1.27,0.32c-0.43,0.09-0.86,0.17-1.3,0.25c-0.06,0.01-0.59,0.11-0.65,0.12c-0.32,0.06-0.64,0.11-0.96,0.17
		c-0.55,0.1-1.11,0.15-1.67,0.22c-0.56,0.07-1.13,0.12-1.7,0.16c-0.06,0-0.61,0.04-0.67,0.04c-0.22,0.01-0.45,0.02-0.67,0.03
		c-0.44,0.01-0.88,0.02-1.32,0.02c-0.45,0-0.9,0.01-1.35-0.01c-0.32-0.01-1.03-0.06-1.35-0.07c-0.9-0.06-1.81-0.13-2.72-0.25
		c-0.9-0.13-1.81-0.28-2.71-0.45c-0.5-0.09-0.99-0.2-1.49-0.33c-0.41-0.09-0.81-0.2-1.22-0.32c-0.36-0.1-1.1-0.31-1.46-0.42
		c-0.45-0.13-0.9-0.29-1.34-0.45c-0.06-0.02-0.61-0.21-0.67-0.24c-0.22-0.08-0.44-0.17-0.66-0.26c-0.44-0.17-0.88-0.35-1.33-0.53
		c-0.44-0.18-0.87-0.39-1.3-0.6c-0.32-0.13-0.98-0.48-1.29-0.64l-0.82-0.42c-0.03-0.02-0.29-0.15-0.32-0.17
		c-0.09-0.05-0.4-0.24-0.48-0.3c-0.41-0.25-0.83-0.49-1.24-0.74c-0.42-0.25-0.82-0.52-1.23-0.79c-0.05-0.04-0.55-0.37-0.6-0.41
		c-0.05-0.04-0.53-0.39-0.59-0.43c-0.39-0.29-0.79-0.57-1.17-0.86c-0.8-0.61-1.57-1.25-2.32-1.93c-0.72-0.62-1.4-1.29-2.07-1.97
		c-0.72-0.75-1.42-1.54-2.11-2.33c-0.58-0.72-1.16-1.45-1.72-2.19c-0.64-0.88-1.25-1.78-1.81-2.71c-0.2-0.31-0.6-0.99-0.78-1.3
		c-0.18-0.31-0.36-0.61-0.53-0.93c-0.17-0.32-0.42-0.83-0.58-1.15c-0.08-0.16-0.26-0.52-0.33-0.68l-0.31-0.69
		c-0.14-0.33-0.48-1.04-0.61-1.37c-0.05-0.13-0.49-1.27-0.54-1.41c-0.09-0.23-0.17-0.47-0.25-0.71c-0.02-0.07-0.22-0.65-0.24-0.72
		l-0.24-0.72c-0.06-0.17-0.17-0.55-0.22-0.73l-0.38-1.46c-0.03-0.14-0.3-1.34-0.33-1.48c-0.05-0.25-0.12-0.49-0.16-0.74
		c-0.01-0.07-0.12-0.68-0.13-0.75c-0.06-0.36-0.18-1.14-0.23-1.49l-0.18-1.51c-0.01-0.04-0.04-0.34-0.05-0.38s-0.03-0.34-0.03-0.38
		c-0.01-0.07-0.05-0.68-0.05-0.75c-0.04-0.51-0.05-1.03-0.07-1.54c-0.01-0.35-0.02-1.14-0.03-1.49c0-0.26,0-0.51,0.01-0.77
		c0.01-0.18,0.03-0.57,0.04-0.75c0.01-0.18,0.03-0.58,0.04-0.76l0.06-0.75c0.02-0.36,0.09-1.16,0.13-1.52
		c0.11-1.01,0.29-2.02,0.48-3.02c0.06-0.34,0.21-1.1,0.29-1.44l0.37-1.46c0.04-0.13,0.37-1.31,0.41-1.44
		c0.13-0.49,0.3-0.96,0.46-1.44c0.17-0.47,0.32-0.95,0.51-1.41c0.18-0.46,0.37-0.93,0.56-1.39c0.2-0.46,0.41-0.91,0.61-1.36
		c0.11-0.22,0.2-0.45,0.32-0.67c0.03-0.06,0.31-0.6,0.34-0.66c0.03-0.06,0.31-0.6,0.34-0.66c0.11-0.22,0.23-0.44,0.35-0.65
		c0.24-0.43,0.49-0.86,0.74-1.28c0.25-0.43,0.52-0.83,0.78-1.25c0.04-0.06,0.36-0.56,0.4-0.62c0.05-0.08,0.41-0.59,0.46-0.66
		c0.29-0.39,0.57-0.79,0.87-1.18c0.93-1.22,1.9-2.4,2.95-3.49c0.2-0.22,0.7-0.74,0.91-0.95c0.13-0.13,0.41-0.41,0.54-0.53
		c0.12-0.11,0.4-0.36,0.52-0.48c0.05-0.04,0.48-0.44,0.53-0.49c0.05-0.04,0.49-0.43,0.54-0.47c0.37-0.32,0.74-0.65,1.11-0.96
		c0.37-0.3,0.74-0.59,1.12-0.87c0.42-0.31,0.85-0.62,1.28-0.93c0.29-0.21,0.93-0.65,1.23-0.85c0.41-0.28,0.84-0.53,1.26-0.78
		c0.3-0.18,0.61-0.36,0.92-0.53c0.54-0.32,1.1-0.62,1.65-0.91c0.26-0.13,0.53-0.27,0.8-0.4c0.41-0.2,0.84-0.38,1.25-0.57
		c0.2-0.09,0.4-0.18,0.59-0.27c0.16-0.07,0.5-0.22,0.66-0.28c0.17-0.07,0.52-0.21,0.68-0.28c0.45-0.18,0.91-0.33,1.36-0.49
		c0.91-0.31,1.82-0.6,2.73-0.87c0.91-0.27,1.84-0.46,2.76-0.66c0.46-0.1,0.92-0.19,1.39-0.27c0.46-0.08,0.92-0.16,1.38-0.22
		c0.44-0.05,0.88-0.11,1.32-0.16c0.44-0.05,0.88-0.08,1.32-0.12c0.87-0.09,1.73-0.11,2.59-0.13c0.43-0.01,0.86,0,1.29,0
		c0.43,0.01,0.85-0.01,1.28,0.02c0.85,0.06,1.69,0.1,2.52,0.19c0.42,0.04,0.83,0.07,1.24,0.13c0.41,0.06,0.82,0.12,1.23,0.19
		c0.81,0.14,1.61,0.29,2.41,0.44c0.78,0.19,1.56,0.39,2.32,0.6c0.77,0.21,1.53,0.43,2.26,0.7c2.95,1.01,5.68,2.27,8.13,3.73
		c2.45,1.45,4.63,3.06,6.54,4.73c1.93,1.69,3.58,3.43,4.99,5.15c1.39,1.69,2.53,3.36,3.49,4.9c0.92,1.57,1.71,2.99,2.29,4.28
		c0.6,1.31,1.08,2.44,1.4,3.38c0.35,0.93,0.57,1.66,0.73,2.15c0.15,0.47,0.23,0.72,0.23,0.72c-1.43-5.42-3.93-10.57-7.31-15.06
		c-3.38-4.5-7.63-8.36-12.48-11.28c-4.84-2.93-10.26-4.93-15.87-5.83c-5.61-0.91-11.41-0.7-16.98,0.58
		c-5.57,1.28-10.9,3.64-15.6,6.94c-4.7,3.29-8.77,7.5-11.91,12.34c-3.14,4.83-5.36,10.28-6.45,15.97c-1.1,5.69-1.08,11.6,0.03,17.3
		c1.1,5.71,3.32,11.22,6.52,16.12c3.19,4.9,7.35,9.18,12.16,12.53c4.81,3.36,10.29,5.8,16.04,7.11c5.75,1.32,11.78,1.49,17.62,0.54
		c5.85-0.93,11.53-3.01,16.62-6.1c5.09-3.09,9.59-7.17,13.16-11.96c1.96-2.62,3.65-5.46,5.02-8.45c-0.39,0.93-0.82,1.87-1.28,2.82
		c-0.26,0.55-0.56,1.1-0.86,1.64c-0.31,0.56-0.62,1.11-0.96,1.67c-1.89,3.14-4.27,6.28-7.19,9.22c-0.6,0.63-1.26,1.21-1.91,1.82
		c-0.32,0.31-0.67,0.59-1.01,0.88c-0.37,0.32-0.75,0.64-1.13,0.96c-0.35,0.28-0.72,0.55-1.09,0.83c-0.37,0.27-0.73,0.56-1.11,0.82
		c-0.38,0.26-0.77,0.52-1.15,0.78c-0.03,0.03-0.55,0.36-0.58,0.39c-0.03,0.03-0.56,0.34-0.6,0.36c-0.4,0.25-0.81,0.49-1.21,0.74
		c-0.41,0.24-0.83,0.46-1.25,0.69c-0.42,0.22-0.84,0.47-1.28,0.67c-0.43,0.21-0.87,0.42-1.31,0.62c-0.22,0.1-0.44,0.21-0.66,0.31
		c-0.04,0.02-0.64,0.26-0.67,0.28c-0.45,0.19-0.9,0.38-1.36,0.56c-0.46,0.18-0.93,0.34-1.39,0.51c-0.47,0.16-0.94,0.35-1.42,0.48
		c-1.03,0.32-2.06,0.66-3.13,0.9c-0.49,0.12-0.99,0.24-1.48,0.36c-0.5,0.1-1.01,0.19-1.51,0.28c-0.05,0.01-0.71,0.13-0.76,0.14
		c-0.33,0.06-0.66,0.11-0.99,0.16c-0.6,0.1-1.2,0.16-1.81,0.23c-0.61,0.07-1.22,0.12-1.83,0.16c-0.05,0-0.74,0.05-0.78,0.05
		c-0.26,0.02-0.52,0.03-0.79,0.03c-0.51,0.02-1.03,0.02-1.55,0.03c-0.52,0-1.05,0.01-1.57-0.01c-0.43-0.01-1.14-0.05-1.58-0.08
		c-1.05-0.07-2.11-0.15-3.17-0.29c-1.06-0.14-2.11-0.32-3.17-0.52c-0.58-0.11-1.16-0.24-1.74-0.38c-0.48-0.11-0.95-0.23-1.43-0.36
		c-0.48-0.13-1.24-0.35-1.72-0.49c-0.53-0.15-1.05-0.34-1.57-0.52c-0.05-0.02-0.74-0.26-0.79-0.27c-0.26-0.09-0.52-0.2-0.78-0.3
		c-0.52-0.2-1.03-0.41-1.55-0.61c-0.51-0.22-1.02-0.46-1.53-0.69c-0.42-0.18-1.1-0.54-1.51-0.74l-0.89-0.45
		c-0.02-0.01-0.35-0.18-0.37-0.2c-0.07-0.04-0.43-0.26-0.49-0.3c-0.49-0.28-0.97-0.57-1.46-0.85c-0.49-0.29-0.96-0.61-1.44-0.91
		c-0.04-0.03-0.67-0.44-0.71-0.47c-0.04-0.03-0.65-0.47-0.69-0.5c-0.46-0.33-0.93-0.66-1.38-1c-0.93-0.71-1.84-1.46-2.72-2.25
		c-0.84-0.73-1.65-1.5-2.44-2.29c-0.85-0.88-1.67-1.79-2.48-2.71c-0.69-0.83-1.37-1.68-2.03-2.55c-0.75-1.03-1.47-2.08-2.14-3.16
		c-0.26-0.41-0.67-1.1-0.92-1.52c-0.22-0.37-0.44-0.75-0.64-1.13c-0.23-0.42-0.5-1-0.72-1.42c-0.11-0.21-0.29-0.58-0.39-0.79
		l-0.36-0.8c-0.19-0.44-0.54-1.16-0.71-1.61c-0.04-0.1-0.6-1.54-0.63-1.64c-0.11-0.27-0.2-0.55-0.29-0.83
		c-0.02-0.05-0.26-0.79-0.28-0.84l-0.28-0.84c-0.08-0.23-0.18-0.62-0.25-0.85l-0.46-1.71c-0.02-0.1-0.37-1.62-0.39-1.72
		c-0.06-0.29-0.14-0.57-0.19-0.86c-0.01-0.05-0.15-0.82-0.15-0.88c-0.08-0.48-0.21-1.27-0.27-1.74l-0.21-1.76
		c0-0.03-0.05-0.41-0.06-0.44c0-0.03-0.03-0.41-0.03-0.44c0-0.05-0.06-0.83-0.06-0.88c-0.05-0.6-0.07-1.2-0.08-1.8
		c-0.01-0.47-0.02-1.27-0.03-1.74c0-0.3,0.01-0.6,0.01-0.89c0.01-0.24,0.03-0.64,0.04-0.87c0.01-0.24,0.03-0.65,0.04-0.89l0.07-0.88
		c0.03-0.49,0.1-1.29,0.16-1.78c0.13-1.18,0.33-2.36,0.55-3.53c0.08-0.45,0.24-1.22,0.33-1.67l0.42-1.71
		c0.03-0.1,0.45-1.58,0.48-1.68c0.15-0.57,0.35-1.12,0.54-1.68c0.19-0.55,0.37-1.11,0.59-1.65c0.21-0.54,0.43-1.08,0.65-1.62
		c0.23-0.53,0.48-1.06,0.72-1.59c0.12-0.26,0.24-0.53,0.37-0.79c0.02-0.05,0.37-0.73,0.4-0.77s0.37-0.73,0.4-0.77
		c0.13-0.26,0.26-0.51,0.41-0.76c0.29-0.5,0.57-1,0.86-1.5c0.29-0.5,0.61-0.98,0.92-1.46c0.03-0.04,0.44-0.68,0.46-0.73
		c0.04-0.06,0.48-0.69,0.52-0.75c0.34-0.46,0.66-0.93,1.01-1.39c1.08-1.43,2.22-2.8,3.44-4.09c0.27-0.29,0.76-0.81,1.04-1.09
		c0.17-0.17,0.46-0.45,0.63-0.62c0.16-0.15,0.44-0.41,0.59-0.56c0.04-0.03,0.58-0.54,0.61-0.57c0.04-0.03,0.6-0.52,0.63-0.55
		c0.43-0.37,0.85-0.75,1.29-1.11c0.43-0.35,0.87-0.69,1.31-1.03c0.5-0.37,0.99-0.73,1.5-1.09c0.39-0.28,1.04-0.73,1.44-1
		c0.48-0.33,0.98-0.62,1.48-0.92c0.36-0.21,0.72-0.42,1.08-0.62c0.63-0.38,1.29-0.72,1.94-1.06c0.31-0.16,0.62-0.31,0.93-0.47
		c0.48-0.24,0.98-0.45,1.47-0.67c0.23-0.1,0.46-0.21,0.7-0.31c0.21-0.09,0.56-0.25,0.78-0.33c0.22-0.09,0.58-0.24,0.8-0.32
		c0.53-0.21,1.06-0.39,1.59-0.58c1.07-0.37,2.13-0.71,3.21-1.01c1.07-0.31,2.16-0.55,3.23-0.78c0.54-0.11,1.08-0.22,1.62-0.31
		c0.54-0.1,1.08-0.18,1.62-0.25c0.51-0.06,1.03-0.13,1.54-0.19c0.51-0.06,1.02-0.09,1.53-0.14c1.01-0.1,2.02-0.12,3.02-0.15
		c0.5-0.02,1,0,1.5,0c0.5,0.01,0.99-0.01,1.49,0.03c0.99,0.06,1.97,0.11,2.93,0.22c0.48,0.04,0.96,0.09,1.44,0.16
		c0.48,0.07,0.96,0.14,1.43,0.22c0.94,0.16,1.88,0.34,2.8,0.52c0.91,0.22,1.81,0.45,2.7,0.69c0.89,0.25,1.77,0.5,2.63,0.82
		c3.43,1.18,6.6,2.65,9.44,4.35c2.84,1.69,5.37,3.57,7.59,5.52c2.23,1.96,4.14,3.99,5.78,5.97c1.61,1.97,2.93,3.92,4.05,5.71
		c1.07,1.81,1.97,3.47,2.65,4.97c0.7,1.52,1.25,2.84,1.63,3.93c0.4,1.08,0.66,1.92,0.84,2.49c0.18,0.55,0.27,0.84,0.27,0.84
		c-1.67-6.29-4.58-12.26-8.51-17.47c-3.93-5.21-8.87-9.69-14.5-13.06c-5.62-3.38-11.9-5.69-18.41-6.72
		c-6.51-1.04-13.22-0.78-19.66,0.7c-6.44,1.49-12.61,4.23-18.04,8.06c-5.43,3.82-10.13,8.7-13.75,14.29
		c-3.63,5.59-6.18,11.9-7.43,18.48c-1.27,6.58-1.22,13.4,0.07,19.99c1.28,6.59,3.86,12.95,7.56,18.6
		c3.69,5.65,8.5,10.58,14.06,14.44c5.56,3.87,11.88,6.67,18.52,8.17c6.64,1.51,13.58,1.69,20.31,0.59
		c6.73-1.09,13.28-3.49,19.14-7.06c5.86-3.56,11.02-8.28,15.13-13.8c2.53-3.39,4.65-7.08,6.32-10.98c-0.18,0.45-0.37,0.9-0.56,1.36
		c-0.51,1.2-1.08,2.41-1.7,3.64c-0.31,0.62-0.65,1.24-1.01,1.86c-0.36,0.63-0.73,1.26-1.12,1.89c-2.21,3.57-4.97,7.12-8.35,10.43
		c-0.69,0.72-1.46,1.36-2.21,2.05c-0.37,0.35-0.77,0.66-1.17,0.99c-0.42,0.35-0.84,0.69-1.26,1.04c-0.41,0.32-0.83,0.62-1.25,0.93
		c-0.42,0.31-0.84,0.63-1.28,0.92c-0.44,0.29-0.88,0.59-1.33,0.88c-0.02,0.02-0.64,0.42-0.67,0.44c-0.02,0.02-0.67,0.39-0.69,0.41
		c-0.46,0.28-0.93,0.55-1.39,0.83c-0.47,0.27-0.96,0.52-1.44,0.78c-0.49,0.25-0.96,0.52-1.46,0.76c-0.5,0.23-1,0.47-1.5,0.7
		c-0.25,0.12-0.5,0.24-0.76,0.35c-0.03,0.01-0.75,0.3-0.77,0.32c-0.52,0.21-1.04,0.42-1.56,0.63c-0.53,0.2-1.06,0.38-1.6,0.57
		c-0.54,0.18-1.07,0.39-1.62,0.54c-1.15,0.34-2.29,0.71-3.48,0.97c-0.56,0.14-1.13,0.27-1.7,0.4c-0.57,0.11-1.15,0.21-1.73,0.31
		c-0.03,0.01-0.84,0.15-0.87,0.16c-0.34,0.06-0.68,0.1-1.03,0.16c-0.64,0.1-1.29,0.16-1.94,0.25c-0.65,0.08-1.31,0.12-1.96,0.17
		c-0.03,0-0.86,0.06-0.9,0.06c-0.3,0.02-0.6,0.04-0.9,0.04c-0.59,0.02-1.18,0.03-1.77,0.03c-0.6,0-1.2,0-1.8-0.02
		c-0.54-0.01-1.26-0.05-1.8-0.08c-1.21-0.07-2.42-0.18-3.63-0.33c-1.21-0.16-2.42-0.35-3.63-0.59c-0.67-0.13-1.33-0.27-1.99-0.43
		c-0.55-0.12-1.09-0.26-1.63-0.41c-0.6-0.16-1.39-0.39-1.99-0.56c-0.61-0.17-1.2-0.39-1.8-0.6c-0.03-0.01-0.87-0.3-0.9-0.31
		c-0.3-0.11-0.59-0.23-0.89-0.34c-0.59-0.23-1.18-0.47-1.78-0.7c-0.58-0.26-1.17-0.53-1.75-0.79c-0.53-0.22-1.22-0.59-1.73-0.85
		l-0.95-0.48c-0.01-0.01-0.42-0.21-0.43-0.22c-0.04-0.03-0.46-0.27-0.5-0.3c-0.56-0.32-1.12-0.65-1.68-0.97
		c-0.56-0.33-1.1-0.69-1.65-1.04c-0.03-0.02-0.79-0.51-0.82-0.53c-0.03-0.02-0.77-0.55-0.79-0.57c-0.53-0.38-1.07-0.75-1.58-1.14
		c-1.07-0.81-2.11-1.67-3.12-2.56c-0.96-0.84-1.89-1.71-2.8-2.61c-0.98-1-1.93-2.04-2.85-3.1c-0.8-0.95-1.58-1.92-2.33-2.91
		c-0.86-1.17-1.69-2.38-2.46-3.62c-0.33-0.51-0.75-1.21-1.06-1.74c-0.26-0.44-0.51-0.88-0.76-1.33c-0.29-0.53-0.59-1.16-0.87-1.69
		c-0.13-0.27-0.32-0.63-0.45-0.9l-0.41-0.92c-0.24-0.55-0.59-1.28-0.81-1.84c-0.03-0.07-0.71-1.81-0.73-1.88
		c-0.13-0.31-0.23-0.63-0.34-0.95c-0.01-0.03-0.31-0.92-0.32-0.96l-0.32-0.96c-0.1-0.28-0.2-0.68-0.29-0.97l-0.53-1.95
		c-0.01-0.07-0.43-1.9-0.45-1.97c-0.07-0.33-0.16-0.66-0.21-0.99c-0.01-0.04-0.17-0.96-0.17-1c-0.1-0.59-0.25-1.4-0.32-2l-0.24-2.01
		c0-0.02-0.06-0.48-0.06-0.5s-0.04-0.49-0.04-0.5c0-0.04-0.07-0.97-0.07-1.01c-0.06-0.69-0.08-1.37-0.1-2.06
		c-0.02-0.59-0.02-1.4-0.04-1.99c0-0.34,0.01-0.68,0.02-1.02c0.01-0.3,0.03-0.7,0.04-1c0.01-0.3,0.02-0.71,0.04-1.01L20,69.03
		c0.04-0.61,0.11-1.43,0.18-2.03c0.15-1.36,0.37-2.7,0.62-4.04c0.11-0.56,0.26-1.34,0.38-1.9l0.47-1.96
		c0.02-0.07,0.53-1.86,0.55-1.93c0.17-0.65,0.4-1.28,0.61-1.91c0.22-0.63,0.42-1.27,0.67-1.88c0.24-0.62,0.49-1.24,0.74-1.86
		c0.26-0.61,0.54-1.21,0.82-1.82c0.14-0.3,0.27-0.61,0.42-0.9c0.02-0.03,0.44-0.85,0.45-0.88c0.02-0.03,0.44-0.85,0.45-0.88
		c0.15-0.3,0.3-0.59,0.47-0.87c0.33-0.57,0.66-1.15,0.98-1.72c0.33-0.57,0.7-1.12,1.05-1.67c0.02-0.03,0.51-0.8,0.53-0.83
		c0.03-0.04,0.56-0.8,0.58-0.83c0.38-0.53,0.75-1.07,1.15-1.59c1.24-1.64,2.55-3.21,3.94-4.69c0.34-0.37,0.83-0.88,1.17-1.23
		c0.21-0.21,0.51-0.5,0.72-0.71c0.2-0.19,0.48-0.45,0.67-0.64c0.03-0.02,0.67-0.64,0.7-0.66c0.03-0.02,0.7-0.61,0.73-0.63
		c0.49-0.42,0.97-0.86,1.47-1.26c0.5-0.4,1-0.79,1.5-1.18c0.57-0.43,1.14-0.84,1.71-1.25c0.49-0.35,1.15-0.81,1.65-1.14
		c0.55-0.37,1.12-0.72,1.69-1.06c0.41-0.25,0.82-0.48,1.23-0.72c0.73-0.44,1.48-0.83,2.22-1.21c0.36-0.18,0.71-0.36,1.07-0.54
		c0.55-0.28,1.12-0.51,1.68-0.77c0.27-0.12,0.53-0.24,0.8-0.36c0.26-0.12,0.62-0.27,0.89-0.37c0.28-0.11,0.64-0.26,0.92-0.37
		c0.6-0.24,1.21-0.45,1.82-0.67c1.22-0.42,2.45-0.81,3.68-1.16c1.23-0.35,2.47-0.63,3.71-0.89c0.62-0.13,1.24-0.25,1.86-0.35
		c0.62-0.11,1.24-0.2,1.85-0.28c0.59-0.07,1.17-0.14,1.75-0.22c0.58-0.07,1.16-0.1,1.74-0.15c1.16-0.11,2.31-0.13,3.45-0.16
		c0.57-0.02,1.14,0,1.71,0c0.57,0.01,1.13,0,1.7,0.04c1.13,0.07,2.24,0.12,3.35,0.26c0.55,0.05,1.1,0.11,1.64,0.18
		c0.55,0.08,1.09,0.16,1.63,0.25c1.08,0.18,2.14,0.39,3.19,0.6c1.04,0.25,2.07,0.51,3.08,0.79c1.02,0.28,2.02,0.58,2.99,0.94
		c3.9,1.34,7.51,3.03,10.75,4.97c3.24,1.93,6.12,4.08,8.64,6.3c2.53,2.23,4.71,4.54,6.56,6.8c1.84,2.25,3.34,4.47,4.61,6.53
		c1.23,2.06,2.23,3.96,3,5.66c0.8,1.74,1.41,3.25,1.85,4.49c0.46,1.22,0.74,2.18,0.95,2.83c0.2,0.64,0.3,0.96,0.3,0.96
		c-1.91-7.16-5.23-13.95-9.71-19.87c-4.48-5.93-10.1-11.02-16.51-14.84c-6.4-3.84-13.54-6.45-20.94-7.61
		c-7.4-1.18-15.03-0.87-22.35,0.83c-7.32,1.7-14.32,4.83-20.48,9.18c-6.17,4.34-11.49,9.89-15.59,16.25
		c-4.11,6.35-6.99,13.52-8.41,20.98c-1.43,7.46-1.37,15.21,0.1,22.68c1.46,7.48,4.39,14.69,8.6,21.08
		c4.2,6.4,9.65,11.98,15.96,16.35c6.31,4.37,13.47,7.54,20.99,9.23c7.52,1.7,15.38,1.9,22.99,0.64c7.62-1.24,15.03-3.97,21.65-8.02
		c6.62-4.04,12.46-9.38,17.1-15.63c3.15-4.23,5.74-8.89,7.7-13.8c-0.42,1.12-0.87,2.25-1.37,3.39c-0.59,1.34-1.24,2.7-1.96,4.07
		c-0.36,0.69-0.75,1.39-1.15,2.08c-0.41,0.7-0.83,1.41-1.28,2.11c-2.53,3.99-5.67,7.95-9.5,11.63c-0.78,0.8-1.66,1.52-2.51,2.28
		c-0.42,0.39-0.88,0.74-1.32,1.1c-0.46,0.37-0.92,0.75-1.39,1.12c-0.46,0.35-0.94,0.69-1.42,1.04c-0.48,0.34-0.95,0.71-1.45,1.03
		c-0.5,0.32-1,0.65-1.5,0.98c-0.01,0.01-0.74,0.48-0.75,0.49c-0.01,0.01-0.77,0.45-0.78,0.46c-0.52,0.31-1.05,0.61-1.57,0.92
		c-0.53,0.31-1.08,0.57-1.62,0.86c-0.55,0.28-1.09,0.58-1.65,0.84c-0.56,0.26-1.13,0.52-1.7,0.78c-0.28,0.13-0.57,0.26-0.86,0.39
		c-0.01,0.01-0.86,0.34-0.87,0.35c-0.58,0.23-1.17,0.47-1.76,0.7c-0.59,0.22-1.2,0.42-1.8,0.63c-0.61,0.2-1.21,0.43-1.83,0.6
		c-1.26,0.36-2.53,0.76-3.83,1.03c-0.64,0.15-1.27,0.29-1.91,0.44c-0.65,0.12-1.3,0.23-1.95,0.35c-0.02,0-0.96,0.17-0.98,0.17
		c-0.35,0.06-0.71,0.1-1.06,0.15c-0.69,0.09-1.38,0.17-2.08,0.26c-0.69,0.09-1.4,0.12-2.1,0.17c-0.02,0-0.99,0.07-1.01,0.07
		c-0.34,0.03-0.67,0.05-1.01,0.05c-0.66,0.02-1.33,0.03-1.99,0.04c-0.67,0-1.35,0-2.03-0.02c-0.64-0.02-1.38-0.05-2.03-0.09
		c-1.36-0.08-2.72-0.2-4.09-0.37c-1.36-0.17-2.72-0.39-4.08-0.66c-0.75-0.14-1.5-0.31-2.24-0.49c-0.62-0.13-1.23-0.29-1.84-0.46
		c-0.72-0.2-1.53-0.43-2.25-0.64c-0.68-0.2-1.35-0.45-2.03-0.67c-0.02-0.01-1-0.34-1.01-0.35c-0.34-0.12-0.67-0.26-1-0.39
		c-0.67-0.26-1.33-0.53-2-0.79c-0.66-0.29-1.31-0.59-1.97-0.89c-0.63-0.27-1.33-0.64-1.95-0.95l-1.01-0.52
		c-0.01,0-0.48-0.24-0.48-0.25c-0.02-0.01-0.49-0.29-0.52-0.3c-0.63-0.36-1.26-0.72-1.89-1.09c-0.63-0.37-1.24-0.78-1.86-1.17
		c-0.01-0.01-0.91-0.58-0.92-0.59c-0.01-0.01-0.88-0.63-0.9-0.64c-0.59-0.43-1.21-0.84-1.79-1.28c-1.21-0.91-2.39-1.87-3.53-2.88
		c-1.08-0.94-2.14-1.92-3.16-2.94c-1.11-1.12-2.18-2.29-3.21-3.48c-0.91-1.06-1.79-2.16-2.64-3.27c-0.97-1.32-1.9-2.67-2.78-4.07
		c-0.39-0.61-0.83-1.33-1.2-1.96c-0.3-0.51-0.59-1.01-0.87-1.53c-0.34-0.63-0.68-1.33-1.01-1.96c-0.16-0.32-0.36-0.69-0.51-1.01
		l-0.46-1.03c-0.29-0.66-0.65-1.4-0.91-2.07c-0.01-0.03-0.81-2.08-0.82-2.11c-0.14-0.35-0.26-0.71-0.38-1.07
		c-0.01-0.02-0.36-1.06-0.36-1.08l-0.36-1.08c-0.12-0.34-0.22-0.75-0.32-1.09L13.8,89c-0.01-0.03-0.49-2.18-0.5-2.22
		c-0.08-0.37-0.18-0.74-0.24-1.11c0-0.02-0.19-1.1-0.2-1.12c-0.12-0.71-0.28-1.53-0.37-2.25l-0.28-2.26c0-0.01-0.07-0.56-0.07-0.57
		s-0.04-0.56-0.04-0.57c0-0.02-0.08-1.12-0.08-1.14c-0.07-0.77-0.1-1.54-0.12-2.32c-0.02-0.71-0.03-1.52-0.05-2.23
		c0-0.38,0.01-0.77,0.02-1.15c0.01-0.36,0.03-0.77,0.04-1.12c0.01-0.36,0.02-0.78,0.04-1.14l0.09-1.13c0.05-0.73,0.12-1.56,0.2-2.29
		c0.17-1.53,0.41-3.04,0.69-4.55c0.13-0.68,0.28-1.46,0.43-2.13l0.52-2.2c0.01-0.03,0.61-2.14,0.62-2.17
		c0.19-0.73,0.45-1.44,0.69-2.15c0.25-0.71,0.47-1.43,0.76-2.12c0.27-0.7,0.55-1.39,0.83-2.09c0.3-0.69,0.61-1.37,0.92-2.05
		c0.16-0.34,0.3-0.68,0.47-1.02c0.01-0.02,0.5-0.98,0.51-1c0.01-0.02,0.5-0.98,0.51-1c0.17-0.33,0.34-0.66,0.53-0.98
		c0.37-0.65,0.74-1.29,1.11-1.93c0.37-0.64,0.79-1.26,1.18-1.88c0.01-0.01,0.59-0.92,0.6-0.94c0.01-0.02,0.63-0.9,0.65-0.92
		c0.43-0.6,0.85-1.21,1.29-1.8c1.39-1.85,2.87-3.61,4.43-5.29c0.41-0.44,0.89-0.95,1.31-1.37c0.26-0.26,0.55-0.55,0.82-0.8
		c0.24-0.23,0.52-0.49,0.75-0.72c0.01-0.01,0.77-0.74,0.79-0.75c0.01-0.01,0.8-0.7,0.82-0.71c0.55-0.47,1.09-0.96,1.64-1.42
		c0.56-0.45,1.13-0.89,1.69-1.33c0.64-0.48,1.28-0.95,1.93-1.42c0.59-0.42,1.27-0.89,1.87-1.29c0.63-0.42,1.26-0.82,1.9-1.2
		c0.46-0.28,0.92-0.55,1.39-0.81c0.82-0.49,1.66-0.93,2.51-1.37c0.4-0.2,0.8-0.41,1.2-0.61c0.62-0.32,1.27-0.58,1.9-0.87
		c0.3-0.13,0.6-0.27,0.9-0.41c0.32-0.14,0.68-0.3,1.01-0.42c0.33-0.13,0.71-0.28,1.04-0.41c0.68-0.27,1.37-0.51,2.06-0.75
		c1.38-0.48,2.76-0.91,4.15-1.3c1.39-0.39,2.79-0.72,4.18-1.01c0.7-0.14,1.4-0.27,2.1-0.39c0.7-0.12,1.39-0.22,2.09-0.31
		c0.66-0.08,1.31-0.16,1.96-0.24c0.65-0.08,1.31-0.11,1.96-0.17c1.3-0.13,2.59-0.14,3.88-0.18c0.64-0.03,1.28,0.01,1.92,0.01
		c0.64,0.02,1.27,0,1.91,0.05c1.26,0.08,2.52,0.14,3.76,0.29c0.62,0.06,1.23,0.13,1.84,0.21c0.61,0.08,1.22,0.18,1.83,0.28
		c1.21,0.2,2.4,0.44,3.58,0.68c1.17,0.28,2.32,0.57,3.45,0.89c1.14,0.32,2.27,0.66,3.36,1.06c4.38,1.51,8.43,3.4,12.06,5.59
		c3.63,2.17,6.87,4.58,9.7,7.08c2.84,2.5,5.27,5.09,7.35,7.63c2.07,2.53,3.75,5.03,5.17,7.35c1.38,2.31,2.49,4.44,3.36,6.35
		c0.9,1.95,1.57,3.65,2.07,5.04c0.52,1.37,0.83,2.45,1.06,3.17c0.22,0.72,0.34,1.09,0.34,1.09c-2.15-8.03-5.88-15.64-10.91-22.28
		c-5.03-6.64-11.34-12.34-18.53-16.62c-7.17-4.29-15.19-7.21-23.48-8.5c-8.29-1.31-16.84-0.96-25.03,0.95
		c-8.2,1.91-16.03,5.42-22.93,10.3c-6.9,4.87-12.85,11.09-17.44,18.21c-4.59,7.12-7.81,15.13-9.39,23.48
		c-1.59,8.35-1.52,17.01,0.14,25.37c1.65,8.36,4.93,16.42,9.64,23.56c4.7,7.15,10.8,13.38,17.85,18.26
		c7.05,4.88,15.06,8.41,23.46,10.29c8.4,1.89,17.18,2.1,25.68,0.69c8.51-1.4,16.78-4.45,24.16-8.97
		c7.39-4.52,13.9-10.48,19.07-17.46c3.87-5.22,7-11.01,9.24-17.13c-0.67,1.94-1.44,3.92-2.34,5.94c-3.28,7.35-8.36,15.12-15.6,21.97
		c-0.88,0.88-1.86,1.67-2.81,2.52c-0.47,0.43-0.98,0.81-1.48,1.21c-0.5,0.4-1.01,0.8-1.52,1.2c-0.52,0.39-1.05,0.76-1.58,1.14
		c-0.54,0.37-1.05,0.78-1.61,1.13c-0.55,0.36-1.11,0.72-1.67,1.08l-0.84,0.54l-0.87,0.5c-0.58,0.34-1.17,0.67-1.75,1.01
		c-0.59,0.34-1.2,0.63-1.81,0.94c-0.61,0.3-1.21,0.64-1.84,0.92c-0.63,0.28-1.26,0.57-1.89,0.85c-0.32,0.14-0.63,0.29-0.95,0.43
		l-0.98,0.38c-0.65,0.26-1.3,0.51-1.96,0.77c-0.66,0.24-1.34,0.45-2.01,0.68c-0.68,0.22-1.34,0.48-2.04,0.65
		c-1.38,0.38-2.76,0.81-4.18,1.1c-0.71,0.16-1.42,0.32-2.13,0.48c-0.72,0.13-1.44,0.25-2.17,0.38l-1.09,0.19
		c-0.36,0.06-0.73,0.09-1.1,0.14c-0.73,0.09-1.47,0.18-2.21,0.27c-0.74,0.1-1.49,0.12-2.23,0.18l-1.12,0.08
		c-0.37,0.03-0.75,0.05-1.13,0.05c-6.01,0.2-12.2-0.3-18.3-1.76c-1.53-0.32-3.04-0.78-4.56-1.21c-0.76-0.22-1.5-0.5-2.25-0.75
		l-1.13-0.38c-0.37-0.13-0.74-0.29-1.11-0.43c-0.74-0.29-1.48-0.59-2.23-0.88c-0.73-0.33-1.46-0.66-2.19-0.99
		c-0.74-0.31-1.45-0.69-2.17-1.06l-1.08-0.55l-0.54-0.27l-0.53-0.3c-0.7-0.4-1.4-0.8-2.11-1.2c-0.7-0.41-1.37-0.86-2.06-1.3
		l-1.03-0.66l-1-0.7c-0.66-0.48-1.34-0.93-1.99-1.42c-2.62-1.97-5.1-4.14-7.46-6.45c-2.33-2.35-4.51-4.86-6.53-7.5
		c-1.98-2.68-3.81-5.49-5.43-8.42c-0.4-0.74-0.77-1.49-1.16-2.23c-0.19-0.37-0.39-0.74-0.57-1.12l-0.52-1.15
		c-0.34-0.77-0.71-1.52-1.02-2.31l-0.92-2.35c-0.16-0.39-0.29-0.79-0.43-1.19l-0.4-1.2l-0.4-1.2c-0.14-0.4-0.23-0.81-0.35-1.21
		l-0.68-2.43l-0.56-2.47c-0.09-0.41-0.2-0.82-0.27-1.24l-0.22-1.25c-0.13-0.83-0.31-1.66-0.41-2.5l-0.31-2.51l-0.08-0.63L4.19,79.7
		L4.1,78.44c-0.16-1.68-0.15-3.37-0.19-5.05c0.01-0.84,0.05-1.68,0.07-2.53c0.01-0.42,0.02-0.84,0.04-1.26l0.1-1.26
		c0.21-3.36,0.76-6.69,1.47-9.96l0.57-2.45l0.69-2.41c0.21-0.81,0.5-1.59,0.77-2.39c0.27-0.79,0.51-1.59,0.84-2.36
		c0.31-0.78,0.61-1.55,0.91-2.33c0.33-0.76,0.68-1.52,1.02-2.28c0.17-0.38,0.33-0.76,0.52-1.13l0.57-1.11l0.56-1.11
		c0.18-0.37,0.37-0.74,0.59-1.09c0.41-0.72,0.82-1.44,1.23-2.15c0.41-0.71,0.88-1.4,1.31-2.1l0.66-1.04l0.71-1.01
		c0.48-0.67,0.94-1.35,1.43-2c1.97-2.62,4.11-5.08,6.37-7.4c0.57-0.57,1.16-1.12,1.74-1.68l0.87-0.83l0.91-0.79
		c0.61-0.52,1.2-1.07,1.82-1.57c0.63-0.5,1.26-0.99,1.88-1.49c2.54-1.93,5.16-3.72,7.89-5.25c1.34-0.81,2.75-1.49,4.13-2.2
		c0.69-0.35,1.41-0.65,2.11-0.97c0.71-0.31,1.4-0.65,2.12-0.92c5.7-2.3,11.57-3.89,17.39-4.64c0.73-0.09,1.45-0.18,2.18-0.27
		c0.72-0.08,1.45-0.12,2.17-0.18c1.44-0.14,2.88-0.15,4.31-0.2c0.71-0.03,1.42,0.01,2.13,0.01c0.71,0.02,1.42,0,2.12,0.06
		c1.4,0.09,2.8,0.15,4.17,0.32c2.76,0.26,5.44,0.77,8.05,1.31c2.6,0.62,5.14,1.3,7.56,2.16c4.86,1.68,9.35,3.78,13.37,6.21
		c4.03,2.41,7.61,5.09,10.75,7.87c3.14,2.78,5.83,5.65,8.14,8.46c2.3,2.82,4.16,5.59,5.74,8.16c3.1,5.18,4.92,9.59,6.01,12.63
		c0.57,1.51,0.92,2.71,1.17,3.51c0.25,0.8,0.38,1.21,0.38,1.21c-2.39-8.9-6.53-17.33-12.11-24.68c-5.58-7.36-12.58-13.67-20.54-18.4
		c-7.95-4.75-16.83-7.97-26.01-9.4C75.6,0.99,66.13,1.39,57.06,3.51c-9.07,2.12-17.74,6.01-25.37,11.42
		c-7.63,5.4-14.21,12.28-19.28,20.16C7.34,42.97,3.78,51.84,2.05,61.08C0.3,70.31,0.38,79.89,2.22,89.13
		c1.83,9.24,5.46,18.15,10.67,26.04c5.2,7.9,11.95,14.78,19.75,20.16c7.8,5.39,16.65,9.28,25.93,11.35
		c9.28,2.08,18.98,2.31,28.37,0.74c9.4-1.55,18.52-4.93,26.67-9.93c8.16-4.99,15.34-11.58,21.03-19.29
		c5.7-7.7,9.93-16.52,12.33-25.83c1.47-5.68,2.26-11.53,2.36-17.41L99.95,74.84z"/>
</g>
</svg>
