<?xml version="1.0" encoding="utf-8"?>
<!-- Generator: Adobe Illustrator 26.3.1, SVG Export Plug-In . SVG Version: 6.00 Build 0)  -->
<svg version="1.1" id="圖層_1" xmlns="http://www.w3.org/2000/svg" xmlns:xlink="http://www.w3.org/1999/xlink" x="0px" y="0px"
	 viewBox="0 0 150 150" style="enable-background:new 0 0 150 150;" xml:space="preserve">
<style type="text/css">
	.st0{fill:#455A74;}
</style>
<g>
	<g>
		<path class="st0" d="M110.84,128.35H39.16c-9.66,0-17.51-7.86-17.51-17.51V39.16c0-9.66,7.86-17.51,17.51-17.51h71.67
			c9.66,0,17.51,7.86,17.51,17.51v71.67C128.35,120.49,120.49,128.35,110.84,128.35z M39.16,27.65c-6.35,0-11.51,5.16-11.51,11.51
			v71.67c0,6.35,5.16,11.51,11.51,11.51h71.67c6.35,0,11.51-5.16,11.51-11.51V39.16c0-6.35-5.16-11.51-11.51-11.51H39.16z"/>
	</g>
	<g>
		<path class="st0" d="M125.35,41.65H24.65v-2.49c0-8.01,6.5-14.51,14.51-14.51h71.67c8.01,0,14.51,6.5,14.51,14.51V41.65z"/>
	</g>
	<g>
		<path class="st0" d="M64.73,113.15H46.59c-7.13,0-12.93-5.8-12.93-12.93V63.08c0-7.13,5.8-12.93,12.93-12.93h18.14
			c7.13,0,12.93,5.8,12.93,12.93v37.14C77.66,107.35,71.86,113.15,64.73,113.15z M46.59,56.15c-3.82,0-6.93,3.11-6.93,6.93v37.14
			c0,3.82,3.11,6.93,6.93,6.93h18.14c3.82,0,6.93-3.11,6.93-6.93V63.08c0-3.82-3.11-6.93-6.93-6.93H46.59z"/>
	</g>
	<g>
		<path class="st0" d="M115.66,67.15h-28c-1.66,0-3-1.34-3-3s1.34-3,3-3h28c1.66,0,3,1.34,3,3S117.32,67.15,115.66,67.15z"/>
	</g>
	<g>
		<path class="st0" d="M115.66,82.15h-28c-1.66,0-3-1.34-3-3s1.34-3,3-3h28c1.66,0,3,1.34,3,3S117.32,82.15,115.66,82.15z"/>
	</g>
	<g>
		<path class="st0" d="M115.66,97.15h-28c-1.66,0-3-1.34-3-3s1.34-3,3-3h28c1.66,0,3,1.34,3,3S117.32,97.15,115.66,97.15z"/>
	</g>
</g>
</svg>
