<?xml version="1.0" encoding="utf-8"?>
<!-- Generator: Adobe Illustrator 26.3.1, SVG Export Plug-In . SVG Version: 6.00 Build 0)  -->
<svg version="1.1" id="圖層_1" xmlns="http://www.w3.org/2000/svg" xmlns:xlink="http://www.w3.org/1999/xlink" x="0px" y="0px"
	 viewBox="0 0 150 150" style="enable-background:new 0 0 150 150;" xml:space="preserve">
<style type="text/css">
	.st0{fill:#455A74;}
</style>
<g>
	<g>
		<path class="st0" d="M110.84,128.35H39.16c-9.66,0-17.51-7.86-17.51-17.51V39.16c0-9.66,7.86-17.51,17.51-17.51h71.67
			c9.66,0,17.51,7.86,17.51,17.51v71.67C128.35,120.49,120.49,128.35,110.84,128.35z M39.16,27.65c-6.35,0-11.51,5.16-11.51,11.51
			v71.67c0,6.35,5.16,11.51,11.51,11.51h71.67c6.35,0,11.51-5.16,11.51-11.51V39.16c0-6.35-5.16-11.51-11.51-11.51H39.16z"/>
	</g>
	<g>
		<path class="st0" d="M90.79,67.82L71.98,56.96c-5.46-3.15-12.29,0.79-12.29,7.1v21.72c0,6.31,6.83,10.25,12.29,7.1l18.81-10.86
			C96.25,78.86,96.25,70.97,90.79,67.82z"/>
	</g>
</g>
</svg>
